<svg xmlns="http://www.w3.org/2000/svg" xmlns:xlink="http://www.w3.org/1999/xlink" width="2813" zoomAndPan="magnify" viewBox="0 0 2109.75 468.749983" height="625" preserveAspectRatio="xMidYMid meet" version="1.0"><defs><g/><clipPath id="e9cbb47347"><path d="M 0.4375 0 L 2109.0625 0 L 2109.0625 468.5 L 0.4375 468.5 Z M 0.4375 0 " clip-rule="nonzero"/></clipPath></defs><g clip-path="url(#e9cbb47347)"><path fill="#ffffff" d="M 0.4375 0 L 2109.0625 0 L 2109.0625 468.5 L 0.4375 468.5 Z M 0.4375 0 " fill-opacity="1" fill-rule="nonzero"/><path fill="#ffffff" d="M 0.4375 0 L 2109.0625 0 L 2109.0625 468.5 L 0.4375 468.5 Z M 0.4375 0 " fill-opacity="1" fill-rule="nonzero"/></g><g fill="#000000" fill-opacity="1"><g transform="translate(539.225169, 295.19547)"><g><path d="M 11.65625 0 L 11.65625 -120.125 L 45.75 -120.125 L 80.53125 -49.859375 L 115.15625 -120.125 L 149.25 -120.125 L 149.25 0 L 121.5 0 L 121.328125 -76.078125 L 90.65625 -12 L 70.421875 -12 L 39.578125 -76.078125 L 39.578125 0 Z M 11.65625 0 "/></g></g></g><g fill="#000000" fill-opacity="1"><g transform="translate(700.137449, 295.19547)"><g><path d="M 11.65625 0 L 11.65625 -120.125 L 106.421875 -120.125 L 106.421875 -95.109375 L 43.015625 -95.109375 L 43.015625 -72.65625 L 100.25 -72.65625 L 100.25 -47.8125 L 43.015625 -47.640625 L 43.015625 -25.015625 L 108.125 -25.015625 L 108.125 0 Z M 11.65625 0 "/></g></g></g><g fill="#000000" fill-opacity="1"><g transform="translate(815.809231, 295.19547)"><g><path d="M 11.65625 0 L 11.65625 -120.125 L 43.015625 -120.125 L 43.015625 0 Z M 11.65625 0 "/></g></g></g><g fill="#000000" fill-opacity="1"><g transform="translate(870.474866, 295.19547)"><g><path d="M 11.65625 0 L 11.65625 -120.125 L 101.4375 -120.125 L 101.265625 -95.109375 L 43.015625 -95.109375 L 43.015625 -68.375 L 96.8125 -68.375 L 96.8125 -43.359375 L 43.015625 -43.359375 L 43.015625 0 Z M 11.65625 0 "/></g></g></g><g fill="#000000" fill-opacity="1"><g transform="translate(974.493783, 295.19547)"><g><path d="M 133.3125 0 L 99.90625 0 L 91.671875 -21.25 L 39.75 -21.25 L 31.359375 0 L -0.859375 0 L 50.71875 -120.125 L 82.9375 -120.125 Z M 65.96875 -88.078125 L 49.1875 -45.234375 L 82.421875 -45.234375 Z M 65.96875 -88.078125 "/></g></g></g><g fill="#000000" fill-opacity="1"><g transform="translate(1106.959397, 295.19547)"><g><path d="M 93.90625 -47.8125 L 93.734375 -120.125 L 122.859375 -120.125 L 122.859375 0 L 95.453125 0 L 40.953125 -71.796875 L 40.953125 0 L 11.65625 0 L 11.65625 -120.125 L 39.234375 -120.125 Z M 93.90625 -47.8125 "/></g></g></g><g fill="#000000" fill-opacity="1"><g transform="translate(1241.652763, 295.19547)"><g><path d="M 91.15625 -61.34375 L 118.234375 -61.34375 L 118.234375 -13.53125 C 111.835938 -8.851562 103.984375 -5.054688 94.671875 -2.140625 C 85.359375 0.773438 76.535156 2.234375 68.203125 2.234375 C 56.085938 2.234375 45.144531 -0.476562 35.375 -5.90625 C 25.613281 -11.332031 17.929688 -18.785156 12.328125 -28.265625 C 6.734375 -37.753906 3.9375 -48.378906 3.9375 -60.140625 C 3.9375 -71.796875 6.820312 -82.335938 12.59375 -91.765625 C 18.363281 -101.191406 26.300781 -108.585938 36.40625 -113.953125 C 46.519531 -119.328125 57.800781 -122.015625 70.25 -122.015625 C 79.164062 -122.015625 88.078125 -120.382812 96.984375 -117.125 C 105.898438 -113.863281 113.441406 -109.492188 119.609375 -104.015625 L 101.78125 -82.078125 C 97.445312 -86.191406 92.453125 -89.445312 86.796875 -91.84375 C 81.140625 -94.25 75.570312 -95.453125 70.09375 -95.453125 C 63.6875 -95.453125 57.910156 -93.90625 52.765625 -90.8125 C 47.628906 -87.726562 43.578125 -83.503906 40.609375 -78.140625 C 37.640625 -72.773438 36.15625 -66.773438 36.15625 -60.140625 C 36.15625 -53.398438 37.640625 -47.316406 40.609375 -41.890625 C 43.578125 -36.460938 47.6875 -32.207031 52.9375 -29.125 C 58.195312 -26.039062 64.023438 -24.5 70.421875 -24.5 C 76.484375 -24.5 83.394531 -26.441406 91.15625 -30.328125 Z M 91.15625 -61.34375 "/></g></g></g><g fill="#000000" fill-opacity="1"><g transform="translate(1368.977364, 295.19547)"><g/></g></g><g fill="#000000" fill-opacity="1"><g transform="translate(1415.250076, 295.19547)"><g><path d="M 114.8125 0 L 91.84375 0 L 69.921875 -36.328125 C 68.773438 -36.210938 66.945312 -36.15625 64.4375 -36.15625 L 35.984375 -36.15625 L 35.984375 0 L 15.765625 0 L 15.765625 -119.953125 L 64.4375 -119.953125 C 79.738281 -119.953125 91.613281 -116.378906 100.0625 -109.234375 C 108.519531 -102.097656 112.75 -92.019531 112.75 -79 C 112.75 -69.40625 110.609375 -61.289062 106.328125 -54.65625 C 102.046875 -48.03125 95.90625 -43.175781 87.90625 -40.09375 Z M 35.984375 -54.328125 L 64.4375 -54.328125 C 73.800781 -54.328125 80.992188 -56.351562 86.015625 -60.40625 C 91.046875 -64.457031 93.5625 -70.484375 93.5625 -78.484375 C 93.5625 -86.253906 91.046875 -92.078125 86.015625 -95.953125 C 80.992188 -99.835938 73.800781 -101.78125 64.4375 -101.78125 L 35.984375 -101.78125 Z M 35.984375 -54.328125 "/></g></g></g><g fill="#000000" fill-opacity="1"><g transform="translate(1539.147397, 295.19547)"><g><path d="M 15.765625 0 L 15.765625 -119.953125 L 101.4375 -119.953125 L 101.4375 -101.78125 L 35.984375 -101.78125 L 35.984375 -69.234375 L 94.59375 -69.234375 L 94.59375 -51.234375 L 35.984375 -51.234375 L 35.984375 -18.171875 L 103.5 -18.171875 L 103.5 0 Z M 15.765625 0 "/></g></g></g><g fill="#000000" fill-opacity="1"><g transform="translate(1651.563217, 295.19547)"><g><path d="M 88.765625 -91.328125 C 82.597656 -95.097656 76.425781 -97.894531 70.25 -99.71875 C 64.082031 -101.550781 58.546875 -102.46875 53.640625 -102.46875 C 47.691406 -102.46875 42.945312 -101.351562 39.40625 -99.125 C 35.863281 -96.90625 34.09375 -93.738281 34.09375 -89.625 C 34.09375 -85.96875 35.234375 -82.9375 37.515625 -80.53125 C 39.804688 -78.132812 42.664062 -76.25 46.09375 -74.875 C 49.519531 -73.507812 54.316406 -71.859375 60.484375 -69.921875 C 68.597656 -67.398438 75.195312 -64.96875 80.28125 -62.625 C 85.363281 -60.289062 89.703125 -56.804688 93.296875 -52.171875 C 96.898438 -47.546875 98.703125 -41.460938 98.703125 -33.921875 C 98.703125 -26.847656 96.785156 -20.65625 92.953125 -15.34375 C 89.128906 -10.03125 83.789062 -5.941406 76.9375 -3.078125 C 70.082031 -0.222656 62.257812 1.203125 53.46875 1.203125 C 44.207031 1.203125 35.289062 -0.507812 26.71875 -3.9375 C 18.15625 -7.363281 10.734375 -12.050781 4.453125 -18 L 13.1875 -35.46875 C 19.25 -29.875 25.90625 -25.503906 33.15625 -22.359375 C 40.414062 -19.222656 47.300781 -17.65625 53.8125 -17.65625 C 60.78125 -17.65625 66.257812 -18.992188 70.25 -21.671875 C 74.25 -24.359375 76.25 -28.046875 76.25 -32.734375 C 76.25 -36.503906 75.078125 -39.585938 72.734375 -41.984375 C 70.398438 -44.378906 67.460938 -46.289062 63.921875 -47.71875 C 60.378906 -49.144531 55.578125 -50.773438 49.515625 -52.609375 C 41.296875 -55.003906 34.703125 -57.34375 29.734375 -59.625 C 24.765625 -61.914062 20.476562 -65.34375 16.875 -69.90625 C 13.28125 -74.476562 11.484375 -80.476562 11.484375 -87.90625 C 11.484375 -94.644531 13.3125 -100.554688 16.96875 -105.640625 C 20.625 -110.722656 25.765625 -114.664062 32.390625 -117.46875 C 39.015625 -120.269531 46.609375 -121.671875 55.171875 -121.671875 C 62.710938 -121.671875 70.140625 -120.523438 77.453125 -118.234375 C 84.765625 -115.953125 91.332031 -112.925781 97.15625 -109.15625 Z M 88.765625 -91.328125 "/></g></g></g><g fill="#000000" fill-opacity="1"><g transform="translate(1758.152617, 295.19547)"><g><path d="M 1.546875 -101.78125 L 1.546875 -119.953125 L 97.671875 -119.953125 L 97.671875 -101.78125 L 59.640625 -101.78125 L 59.640625 0 L 39.40625 0 L 39.40625 -101.78125 Z M 1.546875 -101.78125 "/></g></g></g><g fill="#000000" fill-opacity="1"><g transform="translate(1857.373296, 295.19547)"><g><path d="M 69.40625 -121.328125 C 81.164062 -121.328125 91.898438 -118.640625 101.609375 -113.265625 C 111.328125 -107.898438 118.984375 -100.53125 124.578125 -91.15625 C 130.171875 -81.789062 132.96875 -71.453125 132.96875 -60.140625 C 132.96875 -48.722656 130.171875 -38.328125 124.578125 -28.953125 C 118.984375 -19.585938 111.328125 -12.160156 101.609375 -6.671875 C 91.898438 -1.191406 81.164062 1.546875 69.40625 1.546875 C 57.632812 1.546875 46.894531 -1.191406 37.1875 -6.671875 C 27.476562 -12.160156 19.820312 -19.585938 14.21875 -28.953125 C 8.625 -38.328125 5.828125 -48.722656 5.828125 -60.140625 C 5.828125 -71.453125 8.625 -81.789062 14.21875 -91.15625 C 19.820312 -100.53125 27.476562 -107.898438 37.1875 -113.265625 C 46.894531 -118.640625 57.632812 -121.328125 69.40625 -121.328125 Z M 69.578125 -102.984375 C 61.804688 -102.984375 54.609375 -101.066406 47.984375 -97.234375 C 41.359375 -93.410156 36.101562 -88.242188 32.21875 -81.734375 C 28.332031 -75.222656 26.390625 -68.023438 26.390625 -60.140625 C 26.390625 -52.265625 28.359375 -45.015625 32.296875 -38.390625 C 36.242188 -31.765625 41.5 -26.507812 48.0625 -22.625 C 54.632812 -18.738281 61.804688 -16.796875 69.578125 -16.796875 C 77.335938 -16.796875 84.472656 -18.738281 90.984375 -22.625 C 97.503906 -26.507812 102.675781 -31.765625 106.5 -38.390625 C 110.320312 -45.015625 112.234375 -52.265625 112.234375 -60.140625 C 112.234375 -68.023438 110.320312 -75.222656 106.5 -81.734375 C 102.675781 -88.242188 97.503906 -93.410156 90.984375 -97.234375 C 84.472656 -101.066406 77.335938 -102.984375 69.578125 -102.984375 Z M 69.578125 -102.984375 "/></g></g></g></svg>