<svg xmlns="http://www.w3.org/2000/svg" xmlns:xlink="http://www.w3.org/1999/xlink" width="800" zoomAndPan="magnify" viewBox="0 0 600 149.999998" height="200" preserveAspectRatio="xMidYMid meet" version="1.0"><defs><g/></defs><g fill="#f5f6f9" fill-opacity="1"><g transform="translate(17.012006, 103.407297)"><g><path d="M 6.40625 0 L 6.40625 -55.484375 L 20.78125 -55.484375 L 29.5625 -31.5 C 30.113281 -29.914062 30.632812 -28.265625 31.125 -26.546875 C 31.625 -24.835938 32.125 -23.140625 32.625 -21.453125 L 33 -21.453125 C 33.539062 -23.140625 34.0625 -24.835938 34.5625 -26.546875 C 35.0625 -28.265625 35.554688 -29.914062 36.046875 -31.5 L 44.546875 -55.484375 L 58.984375 -55.484375 L 58.984375 0 L 46.84375 0 L 46.84375 -19 C 46.84375 -20.832031 46.941406 -22.890625 47.140625 -25.171875 C 47.347656 -27.460938 47.585938 -29.757812 47.859375 -32.0625 C 48.128906 -34.375 48.390625 -36.421875 48.640625 -38.203125 L 48.265625 -38.203125 L 43.640625 -24.953125 L 36.203125 -4.6875 L 28.90625 -4.6875 L 21.375 -24.953125 L 16.90625 -38.203125 L 16.609375 -38.203125 C 16.859375 -36.421875 17.109375 -34.375 17.359375 -32.0625 C 17.609375 -29.757812 17.832031 -27.460938 18.03125 -25.171875 C 18.226562 -22.890625 18.328125 -20.832031 18.328125 -19 L 18.328125 0 Z M 6.40625 0 "/></g></g></g><g fill="#f5f6f9" fill-opacity="1"><g transform="translate(82.323785, 103.407297)"><g><path d="M 6.40625 0 L 6.40625 -55.484375 L 41.5625 -55.484375 L 41.5625 -44.390625 L 19.734375 -44.390625 L 19.734375 -34.109375 L 38.28125 -34.109375 L 38.28125 -22.9375 L 19.734375 -22.9375 L 19.734375 -11.171875 L 42.375 -11.171875 L 42.375 0 Z M 6.40625 0 "/></g></g></g><g fill="#f5f6f9" fill-opacity="1"><g transform="translate(129.241025, 103.407297)"><g><path d="M 6.40625 0 L 6.40625 -55.484375 L 19.734375 -55.484375 L 19.734375 0 Z M 6.40625 0 "/></g></g></g><g fill="#f5f6f9" fill-opacity="1"><g transform="translate(155.306164, 103.407297)"><g><path d="M 6.40625 0 L 6.40625 -55.484375 L 41.78125 -55.484375 L 41.78125 -44.390625 L 19.734375 -44.390625 L 19.734375 -32.25 L 38.65625 -32.25 L 38.65625 -21.15625 L 19.734375 -21.15625 L 19.734375 0 Z M 6.40625 0 "/></g></g></g><g fill="#f5f6f9" fill-opacity="1"><g transform="translate(200.287135, 103.407297)"><g><path d="M 19.890625 -27.703125 L 18.703125 -23.015625 L 30.015625 -23.015625 L 28.828125 -27.703125 C 28.078125 -30.484375 27.34375 -33.4375 26.625 -36.5625 C 25.90625 -39.695312 25.175781 -42.679688 24.4375 -45.515625 L 24.140625 -45.515625 C 23.492188 -42.628906 22.796875 -39.632812 22.046875 -36.53125 C 21.304688 -33.425781 20.585938 -30.484375 19.890625 -27.703125 Z M -0.59375 0 L 16.609375 -55.484375 L 32.546875 -55.484375 L 49.75 0 L 35.75 0 L 32.546875 -12.734375 L 16.15625 -12.734375 L 12.953125 0 Z M -0.59375 0 "/></g></g></g><g fill="#f5f6f9" fill-opacity="1"><g transform="translate(249.43853, 103.407297)"><g><path d="M 6.40625 0 L 6.40625 -55.484375 L 19.96875 -55.484375 L 33.734375 -28.90625 L 39.171875 -16.609375 L 39.546875 -16.609375 C 39.203125 -19.535156 38.816406 -22.847656 38.390625 -26.546875 C 37.972656 -30.253906 37.765625 -33.769531 37.765625 -37.09375 L 37.765625 -55.484375 L 50.421875 -55.484375 L 50.421875 0 L 36.875 0 L 23.171875 -26.734375 L 17.734375 -38.875 L 17.359375 -38.875 C 17.648438 -35.800781 18.003906 -32.460938 18.421875 -28.859375 C 18.847656 -25.265625 19.0625 -21.773438 19.0625 -18.390625 L 19.0625 0 Z M 6.40625 0 "/></g></g></g><g fill="#f5f6f9" fill-opacity="1"><g transform="translate(306.335004, 103.407297)"><g><path d="M 31.359375 1.046875 C 26.242188 1.046875 21.613281 -0.0195312 17.46875 -2.15625 C 13.320312 -4.289062 10.019531 -7.46875 7.5625 -11.6875 C 5.101562 -15.914062 3.875 -21.15625 3.875 -27.40625 C 3.875 -32.03125 4.59375 -36.140625 6.03125 -39.734375 C 7.46875 -43.335938 9.441406 -46.378906 11.953125 -48.859375 C 14.460938 -51.347656 17.351562 -53.234375 20.625 -54.515625 C 23.90625 -55.804688 27.410156 -56.453125 31.140625 -56.453125 C 35.203125 -56.453125 38.695312 -55.71875 41.625 -54.25 C 44.5625 -52.789062 46.972656 -51.117188 48.859375 -49.234375 L 41.859375 -40.75 C 40.472656 -41.988281 38.992188 -43.015625 37.421875 -43.828125 C 35.859375 -44.648438 33.910156 -45.0625 31.578125 -45.0625 C 28.847656 -45.0625 26.425781 -44.378906 24.3125 -43.015625 C 22.207031 -41.648438 20.546875 -39.6875 19.328125 -37.125 C 18.109375 -34.570312 17.5 -31.484375 17.5 -27.859375 C 17.5 -22.347656 18.753906 -18.0625 21.265625 -15 C 23.773438 -11.945312 27.609375 -10.421875 32.765625 -10.421875 C 33.765625 -10.421875 34.734375 -10.546875 35.671875 -10.796875 C 36.617188 -11.046875 37.390625 -11.394531 37.984375 -11.84375 L 37.984375 -20.78125 L 29.203125 -20.78125 L 29.203125 -31.65625 L 49.828125 -31.65625 L 49.828125 -5.734375 C 47.890625 -3.898438 45.296875 -2.3125 42.046875 -0.96875 C 38.796875 0.375 35.234375 1.046875 31.359375 1.046875 Z M 31.359375 1.046875 "/></g></g></g><g fill="#f5f6f9" fill-opacity="1"><g transform="translate(363.100804, 101.920152)"><g><path d="M 14.203125 -22.265625 L 14.203125 0 L 7.34375 0 L 7.34375 -53.90625 L 20.46875 -53.90625 C 27 -53.90625 31.828125 -52.640625 34.953125 -50.109375 C 38.078125 -47.578125 39.640625 -43.742188 39.640625 -38.609375 C 39.640625 -36.460938 39.335938 -34.59375 38.734375 -33 C 38.128906 -31.40625 37.328125 -30.035156 36.328125 -28.890625 C 35.335938 -27.742188 34.203125 -26.789062 32.921875 -26.03125 C 31.648438 -25.269531 30.335938 -24.644531 28.984375 -24.15625 L 43.65625 0 L 35.578125 0 L 22.640625 -22.265625 Z M 14.203125 -28.09375 L 20.25 -28.09375 C 22.457031 -28.09375 24.332031 -28.304688 25.875 -28.734375 C 27.425781 -29.171875 28.695312 -29.8125 29.6875 -30.65625 C 30.6875 -31.507812 31.414062 -32.566406 31.875 -33.828125 C 32.332031 -35.097656 32.5625 -36.582031 32.5625 -38.28125 C 32.5625 -40.039062 32.304688 -41.535156 31.796875 -42.765625 C 31.296875 -43.992188 30.535156 -45 29.515625 -45.78125 C 28.492188 -46.570312 27.203125 -47.144531 25.640625 -47.5 C 24.078125 -47.863281 22.226562 -48.046875 20.09375 -48.046875 L 14.203125 -48.046875 Z M 14.203125 -28.09375 "/></g></g><g transform="translate(407.643246, 101.920152)"><g><path d="M 35.328125 0 L 7.34375 0 L 7.34375 -53.90625 L 35.328125 -53.90625 L 35.328125 -47.859375 L 14.203125 -47.859375 L 14.203125 -31.1875 L 33.921875 -31.1875 L 33.921875 -25.21875 L 14.203125 -25.21875 L 14.203125 -6.046875 L 35.328125 -6.046875 Z M 35.328125 0 "/></g></g><g transform="translate(447.502831, 101.920152)"><g><path d="M 35.734375 -14.421875 C 35.734375 -12.035156 35.304688 -9.898438 34.453125 -8.015625 C 33.609375 -6.140625 32.398438 -4.550781 30.828125 -3.25 C 29.253906 -1.945312 27.335938 -0.957031 25.078125 -0.28125 C 22.816406 0.394531 20.269531 0.734375 17.4375 0.734375 C 14.707031 0.734375 12.15625 0.519531 9.78125 0.09375 C 7.414062 -0.332031 5.429688 -0.96875 3.828125 -1.8125 L 3.828125 -8.375 C 4.671875 -7.976562 5.625 -7.585938 6.6875 -7.203125 C 7.757812 -6.828125 8.882812 -6.488281 10.0625 -6.1875 C 11.25 -5.894531 12.46875 -5.65625 13.71875 -5.46875 C 14.96875 -5.289062 16.207031 -5.203125 17.4375 -5.203125 C 21.375 -5.203125 24.28125 -5.9375 26.15625 -7.40625 C 28.039062 -8.882812 28.984375 -11 28.984375 -13.75 C 28.984375 -15.082031 28.800781 -16.238281 28.4375 -17.21875 C 28.082031 -18.195312 27.457031 -19.097656 26.5625 -19.921875 C 25.664062 -20.753906 24.46875 -21.554688 22.96875 -22.328125 C 21.46875 -23.097656 19.578125 -23.941406 17.296875 -24.859375 C 15.109375 -25.710938 13.207031 -26.648438 11.59375 -27.671875 C 9.988281 -28.691406 8.660156 -29.835938 7.609375 -31.109375 C 6.566406 -32.390625 5.789062 -33.84375 5.28125 -35.46875 C 4.78125 -37.09375 4.53125 -38.9375 4.53125 -41 C 4.53125 -43.164062 4.921875 -45.09375 5.703125 -46.78125 C 6.492188 -48.476562 7.601562 -49.910156 9.03125 -51.078125 C 10.457031 -52.253906 12.160156 -53.148438 14.140625 -53.765625 C 16.117188 -54.378906 18.300781 -54.6875 20.6875 -54.6875 C 23.613281 -54.6875 26.242188 -54.40625 28.578125 -53.84375 C 30.910156 -53.289062 32.988281 -52.585938 34.8125 -51.734375 L 32.34375 -45.984375 C 30.738281 -46.691406 28.921875 -47.3125 26.890625 -47.84375 C 24.867188 -48.375 22.773438 -48.640625 20.609375 -48.640625 C 17.609375 -48.640625 15.285156 -47.941406 13.640625 -46.546875 C 11.992188 -45.160156 11.171875 -43.285156 11.171875 -40.921875 C 11.171875 -39.523438 11.351562 -38.316406 11.71875 -37.296875 C 12.09375 -36.273438 12.707031 -35.351562 13.5625 -34.53125 C 14.425781 -33.707031 15.5625 -32.929688 16.96875 -32.203125 C 18.382812 -31.484375 20.128906 -30.71875 22.203125 -29.90625 C 24.429688 -29.019531 26.390625 -28.109375 28.078125 -27.171875 C 29.765625 -26.242188 31.171875 -25.1875 32.296875 -24 C 33.429688 -22.820312 34.285156 -21.457031 34.859375 -19.90625 C 35.441406 -18.363281 35.734375 -16.535156 35.734375 -14.421875 Z M 35.734375 -14.421875 "/></g></g><g transform="translate(486.698704, 101.920152)"><g><path d="M 23.046875 0 L 16.15625 0 L 16.15625 -47.859375 L 0.734375 -47.859375 L 0.734375 -53.90625 L 38.421875 -53.90625 L 38.421875 -47.859375 L 23.046875 -47.859375 Z M 23.046875 0 "/></g></g><g transform="translate(525.894578, 101.920152)"><g><path d="M 51.359375 -27.03125 C 51.359375 -22.875 50.859375 -19.085938 49.859375 -15.671875 C 48.867188 -12.253906 47.390625 -9.328125 45.421875 -6.890625 C 43.460938 -4.460938 41.023438 -2.582031 38.109375 -1.25 C 35.191406 0.0703125 31.828125 0.734375 28.015625 0.734375 C 24.015625 0.734375 20.546875 0.0703125 17.609375 -1.25 C 14.671875 -2.582031 12.234375 -4.460938 10.296875 -6.890625 C 8.367188 -9.328125 6.9375 -12.257812 6 -15.6875 C 5.070312 -19.113281 4.609375 -22.914062 4.609375 -27.09375 C 4.609375 -31.28125 5.070312 -35.070312 6 -38.46875 C 6.9375 -41.875 8.375 -44.78125 10.3125 -47.1875 C 12.257812 -49.601562 14.707031 -51.46875 17.65625 -52.78125 C 20.613281 -54.09375 24.09375 -54.75 28.09375 -54.75 C 31.90625 -54.75 35.253906 -54.09375 38.140625 -52.78125 C 41.035156 -51.46875 43.460938 -49.597656 45.421875 -47.171875 C 47.390625 -44.753906 48.867188 -41.84375 49.859375 -38.4375 C 50.859375 -35.03125 51.359375 -31.226562 51.359375 -27.03125 Z M 11.875 -27.03125 C 11.875 -23.65625 12.191406 -20.625 12.828125 -17.9375 C 13.472656 -15.25 14.453125 -12.960938 15.765625 -11.078125 C 17.078125 -9.203125 18.742188 -7.765625 20.765625 -6.765625 C 22.796875 -5.765625 25.210938 -5.265625 28.015625 -5.265625 C 30.828125 -5.265625 33.242188 -5.765625 35.265625 -6.765625 C 37.296875 -7.765625 38.96875 -9.203125 40.28125 -11.078125 C 41.59375 -12.960938 42.554688 -15.25 43.171875 -17.9375 C 43.785156 -20.625 44.09375 -23.65625 44.09375 -27.03125 C 44.09375 -30.414062 43.785156 -33.445312 43.171875 -36.125 C 42.554688 -38.8125 41.597656 -41.082031 40.296875 -42.9375 C 38.992188 -44.789062 37.332031 -46.210938 35.3125 -47.203125 C 33.300781 -48.203125 30.894531 -48.703125 28.09375 -48.703125 C 25.289062 -48.703125 22.867188 -48.203125 20.828125 -47.203125 C 18.785156 -46.210938 17.101562 -44.789062 15.78125 -42.9375 C 14.457031 -41.082031 13.472656 -38.8125 12.828125 -36.125 C 12.191406 -33.445312 11.875 -30.414062 11.875 -27.03125 Z M 11.875 -27.03125 "/></g></g></g></svg>