<svg xmlns="http://www.w3.org/2000/svg" xmlns:xlink="http://www.w3.org/1999/xlink" width="800" zoomAndPan="magnify" viewBox="0 0 600 149.999998" height="200" preserveAspectRatio="xMidYMid meet" version="1.0"><defs><g/></defs><g fill="#f5f6f9" fill-opacity="1"><g transform="translate(26.405314, 107.101763)"><g><path d="M 7.359375 0 L 7.359375 -63.703125 L 23.859375 -63.703125 L 33.953125 -36.171875 C 34.578125 -34.347656 35.171875 -32.453125 35.734375 -30.484375 C 36.304688 -28.515625 36.878906 -26.5625 37.453125 -24.625 L 37.890625 -24.625 C 38.515625 -26.5625 39.109375 -28.515625 39.671875 -30.484375 C 40.242188 -32.453125 40.816406 -34.347656 41.390625 -36.171875 L 51.140625 -63.703125 L 67.734375 -63.703125 L 67.734375 0 L 53.796875 0 L 53.796875 -21.8125 C 53.796875 -23.914062 53.90625 -26.28125 54.125 -28.90625 C 54.351562 -31.53125 54.625 -34.164062 54.9375 -36.8125 C 55.257812 -39.46875 55.5625 -41.820312 55.84375 -43.875 L 55.421875 -43.875 L 50.109375 -28.640625 L 41.5625 -5.390625 L 33.1875 -5.390625 L 24.546875 -28.640625 L 19.40625 -43.875 L 19.0625 -43.875 C 19.351562 -41.820312 19.640625 -39.46875 19.921875 -36.8125 C 20.210938 -34.164062 20.46875 -31.53125 20.6875 -28.90625 C 20.914062 -26.28125 21.03125 -23.914062 21.03125 -21.8125 L 21.03125 0 Z M 7.359375 0 "/></g></g></g><g fill="#f5f6f9" fill-opacity="1"><g transform="translate(101.407978, 107.101763)"><g><path d="M 7.359375 0 L 7.359375 -63.703125 L 47.71875 -63.703125 L 47.71875 -50.96875 L 22.65625 -50.96875 L 22.65625 -39.171875 L 43.953125 -39.171875 L 43.953125 -26.34375 L 22.65625 -26.34375 L 22.65625 -12.828125 L 48.65625 -12.828125 L 48.65625 0 Z M 7.359375 0 "/></g></g></g><g fill="#f5f6f9" fill-opacity="1"><g transform="translate(155.286744, 107.101763)"><g><path d="M 7.359375 0 L 7.359375 -63.703125 L 22.65625 -63.703125 L 22.65625 0 Z M 7.359375 0 "/></g></g></g><g fill="#f5f6f9" fill-opacity="1"><g transform="translate(185.219384, 107.101763)"><g><path d="M 19.671875 0 L 19.671875 -50.96875 L 2.484375 -50.96875 L 2.484375 -63.703125 L 52.25 -63.703125 L 52.25 -50.96875 L 34.96875 -50.96875 L 34.96875 0 Z M 19.671875 0 "/></g></g></g><g fill="#f5f6f9" fill-opacity="1"><g transform="translate(239.953372, 107.101763)"><g><path d="M 33.609375 1.203125 C 27.847656 1.203125 22.769531 -0.117188 18.375 -2.765625 C 13.988281 -5.421875 10.570312 -9.242188 8.125 -14.234375 C 5.675781 -19.222656 4.453125 -25.195312 4.453125 -32.15625 C 4.453125 -39.113281 5.675781 -45.023438 8.125 -49.890625 C 10.570312 -54.765625 13.988281 -58.472656 18.375 -61.015625 C 22.769531 -63.554688 27.847656 -64.828125 33.609375 -64.828125 C 39.421875 -64.828125 44.507812 -63.539062 48.875 -60.96875 C 53.238281 -58.40625 56.644531 -54.703125 59.09375 -49.859375 C 61.539062 -45.015625 62.765625 -39.113281 62.765625 -32.15625 C 62.765625 -25.195312 61.539062 -19.222656 59.09375 -14.234375 C 56.644531 -9.242188 53.238281 -5.421875 48.875 -2.765625 C 44.507812 -0.117188 39.421875 1.203125 33.609375 1.203125 Z M 33.609375 -11.96875 C 37.828125 -11.96875 41.144531 -13.789062 43.5625 -17.4375 C 45.988281 -21.09375 47.203125 -26 47.203125 -32.15625 C 47.203125 -38.3125 45.988281 -43.113281 43.5625 -46.5625 C 41.144531 -50.007812 37.828125 -51.734375 33.609375 -51.734375 C 29.441406 -51.734375 26.144531 -50.007812 23.71875 -46.5625 C 21.300781 -43.113281 20.09375 -38.3125 20.09375 -32.15625 C 20.09375 -26 21.300781 -21.09375 23.71875 -17.4375 C 26.144531 -13.789062 29.441406 -11.96875 33.609375 -11.96875 Z M 33.609375 -11.96875 "/></g></g></g><g fill="#f5f6f9" fill-opacity="1"><g transform="translate(310.849117, 105.658867)"><g><path d="M 44.046875 0 L 37.375 -18.921875 L 14.609375 -18.921875 L 7.84375 0 L 0 0 L 22.421875 -61.296875 L 29.515625 -61.296875 L 51.984375 0 Z M 34.90625 -25.8125 L 28.734375 -43.515625 C 28.566406 -44.015625 28.363281 -44.625 28.125 -45.34375 C 27.882812 -46.070312 27.640625 -46.851562 27.390625 -47.6875 C 27.140625 -48.519531 26.890625 -49.390625 26.640625 -50.296875 C 26.390625 -51.203125 26.15625 -52.085938 25.9375 -52.953125 C 25.738281 -52.085938 25.515625 -51.191406 25.265625 -50.265625 C 25.015625 -49.347656 24.765625 -48.460938 24.515625 -47.609375 C 24.265625 -46.765625 24.019531 -45.988281 23.78125 -45.28125 C 23.539062 -44.570312 23.335938 -43.984375 23.171875 -43.515625 L 17.125 -25.8125 Z M 34.90625 -25.8125 "/></g></g><g transform="translate(362.838653, 105.658867)"><g><path d="M 53.28125 -31.109375 C 53.28125 -25.960938 52.609375 -21.445312 51.265625 -17.5625 C 49.929688 -13.675781 48 -10.429688 45.46875 -7.828125 C 42.9375 -5.222656 39.828125 -3.265625 36.140625 -1.953125 C 32.453125 -0.648438 28.269531 0 23.59375 0 L 8.3125 0 L 8.3125 -61.046875 L 25.296875 -61.046875 C 29.554688 -61.046875 33.410156 -60.40625 36.859375 -59.125 C 40.316406 -57.84375 43.253906 -55.941406 45.671875 -53.421875 C 48.097656 -50.898438 49.972656 -47.773438 51.296875 -44.046875 C 52.617188 -40.316406 53.28125 -36.003906 53.28125 -31.109375 Z M 45.046875 -30.859375 C 45.046875 -34.921875 44.585938 -38.429688 43.671875 -41.390625 C 42.753906 -44.359375 41.414062 -46.800781 39.65625 -48.71875 C 37.90625 -50.644531 35.75 -52.070312 33.1875 -53 C 30.632812 -53.9375 27.726562 -54.40625 24.46875 -54.40625 L 16.078125 -54.40625 L 16.078125 -6.6875 L 22.84375 -6.6875 C 30.1875 -6.6875 35.722656 -8.71875 39.453125 -12.78125 C 43.179688 -16.84375 45.046875 -22.867188 45.046875 -30.859375 Z M 45.046875 -30.859375 "/></g></g><g transform="translate(421.34254, 105.658867)"><g><path d="M 33.53125 0 L 15.03125 -53.453125 L 14.703125 -53.453125 C 14.867188 -51.390625 15.003906 -49.34375 15.109375 -47.3125 C 15.222656 -45.550781 15.3125 -43.703125 15.375 -41.765625 C 15.445312 -39.835938 15.484375 -38.082031 15.484375 -36.5 L 15.484375 0 L 8.3125 0 L 8.3125 -61.046875 L 19.828125 -61.046875 L 37.03125 -11.28125 L 37.28125 -11.28125 L 54.578125 -61.046875 L 66.09375 -61.046875 L 66.09375 0 L 58.328125 0 L 58.328125 -37.03125 C 58.328125 -38.476562 58.351562 -40.132812 58.40625 -42 C 58.46875 -43.863281 58.539062 -45.644531 58.625 -47.34375 C 58.738281 -49.320312 58.835938 -51.328125 58.921875 -53.359375 L 58.578125 -53.359375 L 39.921875 0 Z M 33.53125 0 "/></g></g><g transform="translate(495.756477, 105.658867)"><g><path d="M 25.546875 0 L 3.421875 0 L 3.421875 -4.265625 L 10.609375 -5.96875 L 10.609375 -55.078125 L 3.421875 -56.78125 L 3.421875 -61.046875 L 25.546875 -61.046875 L 25.546875 -56.78125 L 18.375 -55.078125 L 18.375 -5.96875 L 25.546875 -4.265625 Z M 25.546875 0 "/></g></g><g transform="translate(524.736989, 105.658867)"><g><path d="M 54.03125 0 L 45.046875 0 L 15.03125 -50.53125 L 14.703125 -50.53125 C 14.867188 -48.382812 15.003906 -46.253906 15.109375 -44.140625 C 15.222656 -42.328125 15.3125 -40.429688 15.375 -38.453125 C 15.445312 -36.484375 15.484375 -34.703125 15.484375 -33.109375 L 15.484375 0 L 8.3125 0 L 8.3125 -61.046875 L 17.203125 -61.046875 L 47.09375 -10.765625 L 47.390625 -10.765625 C 47.304688 -12.890625 47.207031 -14.976562 47.09375 -17.03125 C 47.070312 -17.925781 47.046875 -18.847656 47.015625 -19.796875 L 46.84375 -22.546875 C 46.820312 -23.492188 46.800781 -24.398438 46.78125 -25.265625 C 46.769531 -26.128906 46.765625 -26.921875 46.765625 -27.640625 L 46.765625 -61.046875 L 54.03125 -61.046875 Z M 54.03125 0 "/></g></g></g></svg>